<?xml version="1.0" encoding="UTF-8" standalone="no"?>
<!DOCTYPE svg PUBLIC "-//W3C//DTD SVG 1.1//EN" "http://www.w3.org/Graphics/SVG/1.1/DTD/svg11.dtd">
<svg xmlns="http://www.w3.org/2000/svg" xmlns:xl="http://www.w3.org/1999/xlink" version="1.1" viewBox="99 130 379 338" width="379pt" height="338pt" xmlns:dc="http://purl.org/dc/elements/1.1/"><metadata> Produced by OmniGraffle 6.6.2 <dc:date>2018-07-30 01:23:20 +0000</dc:date></metadata><defs/><g stroke="none" stroke-opacity="1" stroke-dasharray="none" fill="none" fill-opacity="1"><title>Canvas 1</title><g><title>Layer 1</title><path d="M 288 243 L 378 297 L 288 351 L 198 297 Z" stroke="white" stroke-linecap="round" stroke-linejoin="round" stroke-width="8"/><path d="M 378 189 L 468 243 L 378 297 L 288 243 Z" stroke="white" stroke-linecap="round" stroke-linejoin="round" stroke-width="8"/><line x1="108" y1="243" x2="108" y2="351" stroke="white" stroke-linecap="round" stroke-linejoin="round" stroke-width="8"/><line x1="198" y1="297" x2="198" y2="405" stroke="white" stroke-linecap="round" stroke-linejoin="round" stroke-width="8"/><line x1="288" y1="351" x2="288" y2="459" stroke="white" stroke-linecap="round" stroke-linejoin="round" stroke-width="8"/><line x1="378" y1="297" x2="378" y2="405" stroke="white" stroke-linecap="round" stroke-linejoin="round" stroke-width="8"/><line x1="468" y1="243" x2="468" y2="351" stroke="white" stroke-linecap="round" stroke-linejoin="round" stroke-width="8"/><line x1="108" y1="351" x2="288" y2="459" stroke="white" stroke-linecap="round" stroke-linejoin="round" stroke-width="8"/><line x1="288" y1="459" x2="468" y2="351" stroke="white" stroke-linecap="round" stroke-linejoin="round" stroke-width="8"/><path d="M 198 189 L 288 243 L 198 297 L 108 243 Z" stroke="white" stroke-linecap="round" stroke-linejoin="round" stroke-width="8"/><path d="M 288 135 L 378 189 L 288 243 L 198 189 Z" fill="#3a8eed"/><path d="M 288 135 L 378 189 L 288 243 L 198 189 Z" stroke="white" stroke-linecap="round" stroke-linejoin="round" stroke-width="8"/><path d="M 288 135 L 333 162 L 288 189 L 243 162 Z" fill="#ba1109"/><path d="M 288 135 L 333 162 L 288 189 L 243 162 Z" stroke="white" stroke-linecap="round" stroke-linejoin="round" stroke-width="8"/><line x1="378" y1="243" x2="423" y2="216" stroke="white" stroke-linecap="round" stroke-linejoin="round" stroke-width="8"/><line x1="225" y1="207" x2="180" y2="234" stroke="white" stroke-linecap="round" stroke-linejoin="round" stroke-width="8"/><line x1="252" y1="225" x2="207" y2="252" stroke="white" stroke-linecap="round" stroke-linejoin="round" stroke-width="8"/><line x1="315" y1="261" x2="270" y2="288" stroke="white" stroke-linecap="round" stroke-linejoin="round" stroke-width="8"/><line x1="342" y1="279" x2="297" y2="306" stroke="white" stroke-linecap="round" stroke-linejoin="round" stroke-width="8"/></g></g></svg>
